<?xml version="1.0" standalone="no"?><!DOCTYPE svg PUBLIC "-//W3C//DTD SVG 1.1//EN" "http://www.w3.org/Graphics/SVG/1.1/DTD/svg11.dtd"><svg t="1541559796403" class="icon" style="" viewBox="0 0 1024 1024" version="1.1" xmlns="http://www.w3.org/2000/svg" p-id="3904" id="mx_n_1541559796412" xmlns:xlink="http://www.w3.org/1999/xlink" width="200" height="200"><defs><style type="text/css"></style></defs><path d="M544 240v64h288v-64H544z m-64 48H368c-8.8 0-16-7.2-16-16s7.2-16 16-16h112v-16c0-35.3 28.7-64 64-64h288c35.3 0 64 28.7 64 64v64c0 35.3-28.7 64-64 64H544c-35.3 0-64-28.7-64-64v-16z m0 528H224c-35.3 0-64-28.7-64-64V312.8l32 46V752c0 17.7 14.3 32 32 32h256v-32c0-35.3 28.7-64 64-64h288c35.3 0 64 28.7 64 64v64c0 35.3-28.7 64-64 64H544c-35.3 0-64-28.7-64-64z m0-272H336c-35.3 0-64-28.7-64-64V343.2l32 25.9V480c0 17.7 14.3 32 32 32h144v-16c0-35.3 28.7-64 64-64h288c35.3 0 64 28.7 64 64v64c0 35.3-28.7 64-64 64H544c-35.3 0-64-28.7-64-64v-16z m64-48v64h288v-64H544z m0 256v64h288v-64H544z" fill="#333333" p-id="3905"></path><path d="M160 240v64h160v-64H160z m0-64h160c35.3 0 64 28.7 64 64v64c0 35.3-28.7 64-64 64H160c-35.3 0-64-28.7-64-64v-64c0-35.3 28.7-64 64-64z" fill="#0076FF" p-id="3906"></path></svg>